# xmcd
#
# Track frame offsets: 
#        150
#        21426
#        26047
#        43404
#        72188
#        97303
#        118642
#        137904
#        163659
#        192864
#        211866
#        235935
#        291187
#        312411
#        335014
#
# Disc length: 4706 seconds
#
# Revision: 0
# Processed by: cddbd v1.5.1PL0 Copyright (c) Steve Scherf et al.
# Submitted via: ExactAudioCopy v0.95a5
#
DISCID=ec12600f
DTITLE=Little Feat - Waiting For Columbus (Deluxe Edition) Disk 2
DYEAR=1900
DGENRE=
TTITLE0=Willin'
TTITLE1=Don't Bogart That Joint
TTITLE2=A Apolitical Blues
TTITLE3=Sailin' Shoes
TTITLE4=Feats Don't Fail Me Now
TTITLE5=One Love Stand
TTITLE6=Rock And Roll Doctor
TTITLE7=Skin It Back
TTITLE8=On Your Way Down
TTITLE9=Walkin' All Night
TTITLE10=Cold, Cold, Cold
TTITLE11=Day At The Races
TTITLE12=Skin It Back (Hoy-Hoy)
TTITLE13=Red Streamliner
TTITLE14=Teenage Nervous Breakdown
EXTD=
EXTT0=
EXTT1=
EXTT2=
EXTT3=
EXTT4=
EXTT5=
EXTT6=
EXTT7=
EXTT8=
EXTT9=
EXTT10=
EXTT11=
EXTT12=
EXTT13=
EXTT14=
PLAYORDER=
